<svg width="40" height="40" viewBox="0 0 40 40" fill="none" xmlns="http://www.w3.org/2000/svg">
<g style="mix-blend-mode:multiply">
<path d="M30.6637 20.9883L16.2888 14.0649C16.1062 13.9783 15.8925 13.9783 15.71 14.0649L1.33504 20.9883C1.13002 21.0876 1 21.2837 1 21.4995C1 21.7154 1.13002 21.9115 1.33627 22.0107L15.7113 28.9342C15.8013 28.9781 15.9 29 16 29C16.1 29 16.1988 28.9781 16.2888 28.9342L30.6637 22.0107C30.87 21.9115 31 21.7154 31 21.4995C31 21.2837 30.87 21.0876 30.6637 20.9883Z" fill="#3552EB"/>
</g>
<g style="mix-blend-mode:multiply">
<path d="M30.6637 11.8331L16.2888 5.06347C16.1062 4.97884 15.8925 4.97884 15.71 5.06347L1.33504 11.8331C1.13002 11.9301 1 12.1219 1 12.3329C1 12.5439 1.13002 12.7357 1.33627 12.8328L15.7113 19.9357C15.8013 19.9786 15.9 20 16 20C16.1 20 16.1988 19.9786 16.2888 19.9357L30.6637 12.8328C30.87 12.7357 31 12.5439 31 12.3329C31 12.1219 30.87 11.9301 30.6637 11.8331Z" fill="#0092F6"/>
</g>
<circle cx="30" cy="26" r="9" fill="#0092F6"/>
<g style="mix-blend-mode:multiply">
<rect x="25" y="23" width="9" height="2" rx="1" fill="#3552EB"/>
</g>
<g style="mix-blend-mode:multiply">
<rect x="26.1428" y="28" width="9" height="2" rx="1" fill="#3552EB"/>
</g>
<circle cx="34" cy="24" r="2" fill="white"/>
<circle cx="26" cy="29" r="2" fill="white"/>
</svg>
