<svg width="40" height="40" viewBox="0 0 40 40" fill="none" xmlns="http://www.w3.org/2000/svg">
<g style="mix-blend-mode:multiply">
<path fill-rule="evenodd" clip-rule="evenodd" d="M20 34.0044C12.2667 34.0044 6 27.7339 6 20.0022C6 12.2677 12.2667 6 20 6C27.7333 6 34 12.2677 34 20.0022C34 27.7339 27.7333 34.0044 20 34.0044ZM39.2395 24.3338C37.4396 23.7084 36.1454 22.014 36.1454 19.9999C36.1454 17.9859 37.4396 16.2914 39.2372 15.666C39.782 15.4775 40.1177 14.9004 39.9614 14.3463C39.5039 12.7277 38.8533 11.1941 38.0396 9.76408C37.7683 9.28585 37.1729 9.10882 36.6649 9.31574C35.7799 9.67901 34.7569 9.77327 33.6971 9.50197C32.1478 9.10192 30.8811 7.83968 30.4719 6.29235C30.1915 5.22784 30.2857 4.20012 30.6466 3.31035C30.8512 2.80453 30.6742 2.20905 30.1961 1.93775C28.7777 1.13535 27.2559 0.491584 25.656 0.0386504C25.0997 -0.117692 24.525 0.215685 24.3365 0.760585C23.7112 2.56082 22.017 3.85525 20.0032 3.85525C17.9918 3.85525 16.2953 2.56082 15.6723 0.762884C15.4815 0.217984 14.9045 -0.117692 14.3505 0.0386504C12.723 0.498481 11.1805 1.15374 9.74373 1.97454C9.28168 2.23894 9.08628 2.81833 9.28857 3.31265C9.62649 4.14264 9.72994 5.08989 9.51385 6.07853C9.15754 7.70173 7.87251 9.06053 6.26566 9.49047C5.21281 9.77327 4.20134 9.6836 3.32321 9.33413C2.81747 9.13181 2.22438 9.31114 1.95542 9.78477C1.14395 11.2148 0.495691 12.7507 0.0405303 14.3693C-0.115788 14.9188 0.21294 15.489 0.748558 15.6844C2.52093 16.3236 3.78986 18.0065 3.78986 19.9999C3.78986 21.9933 2.52093 23.6763 0.746259 24.3154C0.210641 24.5086 -0.115788 25.0787 0.0382315 25.6282C0.445118 27.0698 1.00832 28.447 1.70026 29.7437C1.97381 30.2541 2.60828 30.4289 3.1347 30.1875C4.50249 29.5598 6.22198 29.5805 7.97136 30.7347C8.24032 30.9117 8.48859 31.16 8.6656 31.4267C9.87706 33.2637 9.84258 35.0594 9.12076 36.455C8.8564 36.9677 9.01042 37.6068 9.50696 37.8988C11.0104 38.7817 12.6379 39.4783 14.3551 39.9612C14.9091 40.1175 15.4792 39.7864 15.6654 39.2415C16.2838 37.4344 17.9849 36.1308 20.0032 36.1308C22.0216 36.1308 23.7227 37.4344 24.3411 39.2415C24.5273 39.7841 25.0974 40.1175 25.6514 39.9612C27.3456 39.4852 28.9524 38.7978 30.4421 37.931C30.9432 37.639 31.0949 36.993 30.826 36.4803C30.0949 35.0824 30.0513 33.2775 31.265 31.4336C31.442 31.1669 31.6903 30.9163 31.9593 30.7393C33.7339 29.5644 35.4695 29.5598 36.8442 30.2105C37.3706 30.4588 38.012 30.2863 38.2878 29.7736C38.9867 28.4769 39.5499 27.0974 39.9614 25.6512C40.1177 25.0971 39.7843 24.5224 39.2395 24.3338Z" fill="#0092F6"/>
</g>
<path fill-rule="evenodd" clip-rule="evenodd" d="M10 20C10 25.5228 14.4772 30 20 30C25.5228 30 30 25.5228 30 20C30 14.4772 25.5228 10 20 10C14.4772 10 10 14.4772 10 20ZM18.8889 15.4445C18.8889 14.8922 19.3366 14.4445 19.8889 14.4445H20.1111C20.6634 14.4445 21.1111 14.8922 21.1111 15.4445V19.8796L21.1112 19.8889V20.1111C21.1112 20.6634 20.6635 21.1111 20.1112 21.1111H16.5556C16.0033 21.1111 15.5556 20.6634 15.5556 20.1111V19.8889C15.5556 19.3366 16.0033 18.8889 16.5556 18.8889H18.8889V15.4445Z" fill="#3552EB"/>
</svg>
