<svg width="40" height="40" viewBox="0 0 40 40" fill="none" xmlns="http://www.w3.org/2000/svg">
<g clip-path="url(#clip0)">
<g style="mix-blend-mode:multiply">
<g style="mix-blend-mode:darken">
<path fill-rule="evenodd" clip-rule="evenodd" d="M25.8083 34.941V33.4823C25.8083 32.6659 25.1531 32.0107 24.3368 32H15.368C14.5517 32 13.8965 32.6552 13.8965 33.4715V34.9302C13.8965 36.1547 14.788 37.1536 15.9588 37.3362L16.324 38.7218C16.528 39.4737 17.2047 40 17.9888 40H21.716C22.5001 40 23.1767 39.4737 23.3808 38.7218L23.7568 37.3362C24.9168 37.1644 25.8083 36.1547 25.8083 34.941ZM29.1058 21.7832C31.3399 19.4739 32.7148 16.3268 32.7148 12.8574C32.7148 5.72535 26.9146 -0.0533335 19.7718 0.000371669C12.6183 0.0540769 6.92555 5.8435 7.00074 12.997C7.03296 16.4019 8.39707 19.4954 10.5882 21.7725C12.2853 23.5232 13.3703 25.8217 13.7462 28.217C13.8966 29.2481 14.7988 30 15.8407 30H23.8213C24.8739 30 25.7654 29.2374 25.9265 28.2062C26.2917 25.811 27.4087 23.5447 29.1058 21.7832ZM12.7227 10.46C12.7227 7.69854 14.9612 5.45996 17.7227 5.45996C18.2749 5.45996 18.7227 5.01225 18.7227 4.45996C18.7227 3.90768 18.2749 3.45996 17.7227 3.45996C13.8567 3.45996 10.7227 6.59397 10.7227 10.46C10.7227 11.0122 11.1704 11.46 11.7227 11.46C12.2749 11.46 12.7227 11.0122 12.7227 10.46Z" fill="#0092F6"/>
</g>
</g>
<g style="mix-blend-mode:multiply">
<path fill-rule="evenodd" clip-rule="evenodd" d="M21 18C21 16.3431 22.3431 15 24 15C25.6567 15 27 16.3431 27 18C27 19.6569 25.6569 21 24 21H23V30H21V21H19V30H17V21H16C14.3431 21 13 19.6569 13 18C13 16.3431 14.3431 15 16 15C17.6569 15 19 16.3431 19 18V19H21V18ZM15 18C15 18.5522 15.4477 19 16 19H17V18C17 17.4478 16.5522 17 16 17C15.4477 17 15 17.4478 15 18ZM23 19H24C24.5522 19 25 18.5522 25 18C25 17.4478 24.5522 17 24 17C23.4478 17 23 17.4478 23 18V19Z" fill="#3553EB"/>
</g>
</g>
<defs>
<clipPath id="clip0">
<rect width="40" height="40" fill="white"/>
</clipPath>
</defs>
</svg>
