<svg width="40" height="40" viewBox="0 0 40 40" fill="none" xmlns="http://www.w3.org/2000/svg">
<g style="mix-blend-mode:multiply">
<path d="M39.5516 25.2496L20.385 15.0952C20.1416 14.9683 19.8566 14.9683 19.6134 15.0952L0.446719 25.2496C0.173359 25.3952 0 25.6828 0 25.9994C0 26.3159 0.173359 26.6036 0.448359 26.7491L19.615 36.9035C19.735 36.9679 19.8666 37 20 37C20.1334 37 20.265 36.9679 20.385 36.9035L39.5516 26.7491C39.8266 26.6036 40 26.3159 40 25.9994C40 25.6828 39.8266 25.3952 39.5516 25.2496Z" fill="#3552EB"/>
</g>
<g style="mix-blend-mode:multiply">
<path d="M39.5516 13.2496L20.385 3.0952C20.1416 2.96827 19.8566 2.96827 19.6134 3.0952L0.446719 13.2496C0.173359 13.3952 0 13.6828 0 13.9994C0 14.3159 0.173359 14.6036 0.448359 14.7491L19.615 24.9035C19.735 24.9679 19.8666 25 20 25C20.1334 25 20.265 24.9679 20.385 24.9035L39.5516 14.7491C39.8266 14.6036 40 14.3159 40 13.9994C40 13.6828 39.8266 13.3952 39.5516 13.2496Z" fill="#0092F6"/>
</g>
</svg>
