<svg width="40" height="40" viewBox="0 0 40 40" fill="none" xmlns="http://www.w3.org/2000/svg">
<path d="M34.467 30.5372L8.80711 28.2923C7.63969 28.1902 6.77521 27.1808 6.87531 26.0367L8.25609 10.2543C8.35609 9.11124 9.38281 8.26626 10.5502 8.36839L36.2101 10.6133C37.3775 10.7155 38.2419 11.7259 38.1419 12.869L36.7612 28.6503C36.6611 29.7944 35.6344 30.6394 34.467 30.5372Z" fill="#0092F6"/>
<path d="M38.0616 13.7868L8.17578 11.1721L7.82716 15.1569L37.713 17.7716L38.0616 13.7868Z" fill="white"/>
<path d="M25.8834 26.7748C28.0841 26.9673 30.0242 25.3394 30.2168 23.1386C30.4093 20.9379 28.7814 18.9978 26.5806 18.8052C24.3799 18.6127 22.4397 20.2407 22.2472 22.4414C22.0547 24.6421 23.6826 26.5822 25.8834 26.7748Z" fill="#0092F6"/>
<path d="M27.879 23H2.12104C0.949166 23 0 22.0698 0 20.9213V5.07868C0 3.93125 0.949166 3 2.12104 3H27.879C29.0508 3 30 3.93125 30 5.07868V20.9203C30 22.0688 29.0508 23 27.879 23Z" fill="#3552EB"/>
<path d="M9 10H5C4.44772 10 4 10.4477 4 11V14C4 14.5523 4.44772 15 5 15H9C9.55228 15 10 14.5523 10 14V11C10 10.4477 9.55228 10 9 10Z" fill="white"/>
<g style="mix-blend-mode:multiply">
<path fill-rule="evenodd" clip-rule="evenodd" d="M33.9573 22H34.043C36.3873 22 38.2858 24.0251 38.2858 26.5257V28.8571H38.2857V29.0118C39.2495 29.1185 40 29.9364 40 30.9286V35C40 36.1046 39.1046 37 38 37H30C28.8954 37 28 36.1046 28 35V30.9286C28 29.9364 28.7505 29.1184 29.7145 29.0118V28.8571H29.7144V26.5257C29.7144 24.0251 31.613 22 33.9573 22ZM31.8573 29H36.1428V28.6429H36.143V26.5486C36.143 25.2983 35.1937 24.2857 34.0215 24.2857H33.9787C32.8065 24.2857 31.8573 25.2983 31.8573 26.5486V28.6429H31.8573V29Z" fill="#3552EB"/>
</g>
</svg>
