<svg width="40" height="40" viewBox="0 0 40 40" fill="none" xmlns="http://www.w3.org/2000/svg">
<path fill-rule="evenodd" clip-rule="evenodd" d="M19.5771 1.09382C19.8452 0.968728 20.1548 0.968728 20.4229 1.09382L24.1729 2.84382C24.6734 3.07737 24.8897 3.67241 24.6562 4.17289C24.4226 4.67336 23.8276 4.88974 23.3271 4.65618L20 3.10353L16.6729 4.65618C16.1724 4.88974 15.5774 4.67336 15.3438 4.17289C15.1103 3.67242 15.3266 3.07737 15.8271 2.84382L19.5771 1.09382ZM30.3438 6.82711C30.5774 6.32664 31.1724 6.11026 31.6729 6.34382L35.4229 8.09382C35.775 8.25812 36 8.61148 36 9V11.5C36 12.0523 35.5523 12.5 35 12.5C34.4477 12.5 34 12.0523 34 11.5V9.63686L30.8271 8.15618C30.3266 7.92263 30.1103 7.32759 30.3438 6.82711ZM9.65618 6.82712C9.88974 7.32759 9.67336 7.92263 9.17289 8.15619L6 9.63687V11.5C6 12.0523 5.55228 12.5 5 12.5C4.44772 12.5 4 12.0523 4 11.5V9.00001C4 8.61148 4.22504 8.25812 4.57711 8.09382L8.32711 6.34382C8.82759 6.11027 9.42263 6.32665 9.65618 6.82712ZM35 15.5C35.5523 15.5 36 15.9477 36 16.5V21.5C36 22.0523 35.5523 22.5 35 22.5C34.4477 22.5 34 22.0523 34 21.5V16.5C34 15.9477 34.4477 15.5 35 15.5ZM5 15.5C5.55228 15.5 6 15.9477 6 16.5V21.5C6 22.0523 5.55228 22.5 5 22.5C4.44772 22.5 4 22.0523 4 21.5V16.5C4 15.9477 4.44772 15.5 5 15.5ZM35 25.5C35.5523 25.5 36 25.9477 36 26.5V29C36 29.3693 35.7965 29.7086 35.4706 29.8824L31.7206 31.8824C31.2333 32.1423 30.6275 31.9579 30.3676 31.4706C30.1077 30.9833 30.2921 30.3775 30.7794 30.1176L34 28.4V26.5C34 25.9477 34.4477 25.5 35 25.5ZM5 25.5C5.55228 25.5 6 25.9477 6 26.5V28.4L9.22059 30.1177C9.7079 30.3776 9.89225 30.9833 9.63235 31.4706C9.37245 31.9579 8.76672 32.1423 8.27941 31.8824L4.52941 29.8824C4.20355 29.7086 4 29.3693 4 29V26.5C4 25.9477 4.44772 25.5 5 25.5ZM24.6324 34.5294C24.8923 35.0167 24.7079 35.6225 24.2206 35.8824L20.4706 37.8824C20.1765 38.0392 19.8235 38.0392 19.5294 37.8824L15.7794 35.8824C15.2921 35.6225 15.1077 35.0167 15.3676 34.5294C15.6275 34.0421 16.2333 33.8577 16.7206 34.1176L20 35.8667L23.2794 34.1176C23.7667 33.8577 24.3725 34.0421 24.6324 34.5294Z" fill="#3552EB"/>
<path d="M18.4789 18.7157L9.47885 13.8067C8.81248 13.4432 8 13.9255 8 14.6845V26.4064C8 26.7723 8.19989 27.109 8.52115 27.2843L17.5211 32.1934C18.1875 32.5568 19 32.0745 19 31.3155V19.5936C19 19.2277 18.8001 18.891 18.4789 18.7157Z" fill="#0092F6"/>
<path d="M21.5211 18.7157L30.5211 13.8067C31.1875 13.4432 32 13.9255 32 14.6845V26.4064C32 26.7723 31.8001 27.109 31.4789 27.2843L22.4789 32.1934C21.8125 32.5568 21 32.0745 21 31.3155V19.5936C21 19.2277 21.1999 18.891 21.5211 18.7157Z" fill="#3552EB"/>
<path fill-rule="evenodd" clip-rule="evenodd" d="M20.4472 5.22361C20.1657 5.08285 19.8343 5.08285 19.5528 5.22361L9.78887 10.1056C9.05182 10.4741 9.05182 11.5259 9.78887 11.8944L19.5528 16.7764C19.8343 16.9172 20.1657 16.9172 20.4472 16.7764L30.2112 11.8944C30.9482 11.5259 30.9482 10.4741 30.2112 10.1056L20.4472 5.22361Z" fill="#0092F6"/>
</svg>
