<svg width="200" height="200" viewBox="0 0 200 200" fill="none" xmlns="http://www.w3.org/2000/svg">
<g clip-path="url(#clip0)">
<path d="M100 4.16699C44.75 4.16699 0 48.167 0 102.434C0 145.859 28.65 182.684 68.375 195.667C73.375 196.592 75.2083 193.55 75.2083 190.942C75.2083 188.609 75.125 182.425 75.0833 174.234C47.2667 180.159 41.4 161.05 41.4 161.05C36.85 149.709 30.275 146.675 30.275 146.675C21.2167 140.584 30.975 140.709 30.975 140.709C41.0167 141.392 46.2917 150.834 46.2917 150.834C55.2083 165.859 69.7 161.517 75.4167 159.009C76.3167 152.65 78.8917 148.325 81.75 145.867C59.5417 143.409 36.2 134.959 36.2 97.3087C36.2 86.5837 40.075 77.817 46.4917 70.942C45.3667 68.4587 41.9917 58.467 47.3667 44.9337C47.3667 44.9337 55.7417 42.3003 74.8667 55.0087C82.8667 52.8253 91.3667 51.742 99.8667 51.692C108.367 51.742 116.867 52.8253 124.867 55.0087C143.867 42.3003 152.242 44.9337 152.242 44.9337C157.617 58.467 154.242 68.4587 153.242 70.942C159.617 77.817 163.492 86.5837 163.492 97.3087C163.492 135.059 140.117 143.367 117.867 145.784C121.367 148.734 124.617 154.759 124.617 163.967C124.617 177.117 124.492 187.684 124.492 190.875C124.492 193.45 126.242 196.525 131.367 195.542C171.375 182.642 200 145.792 200 102.434C200 48.167 155.225 4.16699 100 4.16699V4.16699Z" fill="#BDC3CA"/>
</g>
<defs>
<clipPath id="clip0">
<rect width="200" height="200" fill="white"/>
</clipPath>
</defs>
</svg>
