<svg width="200" height="200" viewBox="0 0 200 200" fill="none" xmlns="http://www.w3.org/2000/svg">
<path d="M182.422 105.859H123.438C113.745 105.859 105.859 113.745 105.859 123.438C105.859 133.13 113.745 141.016 123.438 141.016H182.422C192.114 141.016 200 133.13 200 123.438C200 113.745 192.114 105.859 182.422 105.859Z" fill="#BDC3CA"/>
<path d="M76.5625 58.9844H17.5781C7.88555 58.9844 0 66.8699 0 76.5625C0 86.2551 7.88555 94.1406 17.5781 94.1406H76.5625C86.2551 94.1406 94.1406 86.2551 94.1406 76.5625C94.1406 66.8699 86.2551 58.9844 76.5625 58.9844Z" fill="#BDC3CA"/>
<path d="M123.438 94.1406C133.13 94.1406 141.016 86.2551 141.016 76.5625V17.5781C141.016 7.88555 133.13 0 123.438 0C113.745 0 105.859 7.88555 105.859 17.5781V76.5625C105.859 86.2551 113.745 94.1406 123.438 94.1406Z" fill="#BDC3CA"/>
<path d="M76.5625 105.859C66.8699 105.859 58.9844 113.745 58.9844 123.438V182.422C58.9844 192.114 66.8699 200 76.5625 200C86.2551 200 94.1406 192.114 94.1406 182.422V123.438C94.1406 113.745 86.2551 105.859 76.5625 105.859Z" fill="#BDC3CA"/>
<path d="M158.984 94.1406H176.562C189.486 94.1406 200 83.6266 200 70.7031C200 57.7797 189.486 47.2656 176.562 47.2656C163.639 47.2656 153.125 57.7797 153.125 70.7031V88.2812C153.125 91.5172 155.748 94.1406 158.984 94.1406Z" fill="#BDC3CA"/>
<path d="M41.0156 105.859H23.4375C10.5141 105.859 0 116.373 0 129.297C0 142.22 10.5141 152.734 23.4375 152.734C36.3609 152.734 46.875 142.22 46.875 129.297V111.719C46.875 108.483 44.2516 105.859 41.0156 105.859Z" fill="#BDC3CA"/>
<path d="M70.7031 0C57.7797 0 47.2656 10.5141 47.2656 23.4375C47.2656 36.3609 57.7797 46.875 70.7031 46.875H88.2812C91.5172 46.875 94.1406 44.2516 94.1406 41.0156V23.4375C94.1406 10.5141 83.6266 0 70.7031 0Z" fill="#BDC3CA"/>
<path d="M129.297 153.125H111.719C108.483 153.125 105.859 155.748 105.859 158.984V176.562C105.859 189.486 116.373 200 129.297 200C142.22 200 152.734 189.486 152.734 176.562C152.734 163.639 142.22 153.125 129.297 153.125Z" fill="#BDC3CA"/>
</svg>
