<svg width="40" height="40" viewBox="0 0 40 40" fill="none" xmlns="http://www.w3.org/2000/svg">
<path fill-rule="evenodd" clip-rule="evenodd" d="M20.2009 8.2C20.2009 12.1765 16.9773 15.4 13.0009 15.4C9.02441 15.4 5.80086 12.1765 5.80086 8.2C5.80086 4.22355 9.02441 1 13.0009 1C16.9773 1 20.2009 4.22355 20.2009 8.2ZM13.0004 34.6C8.29935 34.6 4.04927 32.6691 1 29.5571V22.8002C1 20.0388 3.23858 17.8002 6 17.8002H20C22.7614 17.8002 25 20.0388 25 22.8002V29.558C21.9508 32.6694 17.7011 34.6 13.0004 34.6Z" fill="#0092F6"/>
<path d="M31.2776 38.5364C33.6565 39.8385 35.7487 38.2603 35.2937 35.4985L34.4768 30.5395L37.9373 27.0275C39.8619 25.0743 39.0668 22.515 36.4033 22.1121L31.6209 21.3886L29.4928 16.8991C28.3007 14.3843 25.7123 14.3572 24.518 16.8768L22.3793 21.3886L17.5969 22.1121C14.9372 22.5145 14.1356 25.0716 16.0629 27.0275L19.5234 30.5395L18.7065 35.4985C18.2522 38.2564 20.3403 39.8404 22.7226 38.5364L27.0001 36.1951L31.2776 38.5364Z" fill="#3553EB" style="mix-blend-mode:multiply"/>
</svg>
