<svg width="40" height="40" viewBox="0 0 40 40" fill="none" xmlns="http://www.w3.org/2000/svg">
<g style="mix-blend-mode:multiply">
<path fill-rule="evenodd" clip-rule="evenodd" d="M12.0019 18.8971C8.19091 18.8971 5.10272 15.8075 5.10272 11.998C5.10272 8.18705 8.19091 5.09885 12.0019 5.09885C15.8128 5.09885 18.901 8.18705 18.901 11.998C18.901 15.8075 15.8128 18.8971 12.0019 18.8971ZM23.5437 14.598C22.4637 14.2228 21.6872 13.2063 21.6872 11.9981C21.6872 10.7898 22.4637 9.77328 23.5423 9.39812C23.8692 9.28502 24.0706 8.93882 23.9768 8.60642C23.7023 7.63541 23.312 6.71543 22.8237 5.85752C22.661 5.57063 22.3038 5.46443 21.9989 5.58856C21.4679 5.80649 20.8541 5.86304 20.2183 5.70028C19.2887 5.46029 18.5287 4.70307 18.2832 3.77482C18.1149 3.13621 18.1714 2.51967 18.388 1.9859C18.5107 1.68245 18.4045 1.32522 18.1177 1.16247C17.2666 0.681101 16.3536 0.294904 15.3936 0.0231866C15.0598 -0.0706042 14.715 0.129391 14.6019 0.456279C14.2267 1.53625 13.2102 2.31278 12.0019 2.31278C10.7951 2.31278 9.77717 1.53625 9.40339 0.457658C9.28891 0.13077 8.94271 -0.0706042 8.61031 0.0231866C7.63378 0.299042 6.70829 0.692135 5.84624 1.18454C5.56901 1.34315 5.45177 1.69073 5.57314 1.98727C5.7759 2.48519 5.83796 3.05345 5.70831 3.64654C5.49452 4.62031 4.72351 5.43546 3.7594 5.69339C3.12769 5.86304 2.52081 5.80925 1.99392 5.5996C1.69048 5.47822 1.33463 5.5858 1.17325 5.86993C0.68637 6.72784 0.297415 7.6492 0.0243182 8.62021C-0.0694726 8.94986 0.127764 9.29192 0.449135 9.40915C1.51256 9.79259 2.27392 10.8022 2.27392 11.9981C2.27392 13.1939 1.51256 14.2035 0.447756 14.587C0.126385 14.7028 -0.0694726 15.0449 0.0229389 15.3745C0.267071 16.2393 0.604993 17.0655 1.02015 17.8434C1.18429 18.1496 1.56497 18.2544 1.88082 18.1096C2.70149 17.7331 3.73319 17.7455 4.78282 18.4379C4.94419 18.5441 5.09315 18.6931 5.19936 18.8531C5.92624 19.9551 5.90555 21.0323 5.47246 21.8695C5.31384 22.1771 5.40625 22.5605 5.70417 22.7357C6.60622 23.2654 7.58275 23.6833 8.61307 23.9729C8.94547 24.0667 9.28753 23.8681 9.39925 23.5412C9.77028 22.4571 10.7909 21.6751 12.0019 21.6751C13.2129 21.6751 14.2336 22.4571 14.6046 23.5412C14.7164 23.8667 15.0584 24.0667 15.3908 23.9729C16.4074 23.6874 17.3715 23.275 18.2652 22.755C18.5659 22.5799 18.6569 22.1923 18.4956 21.8847C18.057 21.0461 18.0308 19.9634 18.759 18.8572C18.8652 18.6972 19.0142 18.5469 19.1756 18.4407C20.2404 17.7358 21.2817 17.7331 22.1065 18.1234C22.4224 18.2724 22.8072 18.1689 22.9727 17.8614C23.392 17.0834 23.7299 16.2559 23.9768 15.3883C24.0706 15.0559 23.8706 14.7111 23.5437 14.598Z" fill="#3552EB"/>
</g>
<g style="mix-blend-mode:multiply">
<path fill-rule="evenodd" clip-rule="evenodd" d="M24.0023 33.2C18.9211 33.2 14.8035 29.0799 14.8035 23.9997C14.8035 18.9177 18.9211 14.7994 24.0023 14.7994C29.0836 14.7994 33.2012 18.9177 33.2012 23.9997C33.2012 29.0799 29.0836 33.2 24.0023 33.2ZM39.3916 27.4671C37.9517 26.9668 36.9163 25.6112 36.9163 23.9999C36.9163 22.3887 37.9517 21.0331 39.3898 20.5328C39.8256 20.382 40.0941 19.9203 39.9691 19.477C39.6031 18.1821 39.0827 16.9553 38.4317 15.8113C38.2146 15.4287 37.7383 15.2871 37.3319 15.4526C36.6239 15.7432 35.8055 15.8186 34.9577 15.6016C33.7182 15.2815 32.7049 14.2717 32.3776 13.0339C32.1532 12.1823 32.2286 11.3601 32.5173 10.6483C32.681 10.2436 32.5394 9.76724 32.1569 9.5502C31.0222 8.90828 29.8047 8.39327 28.5248 8.03092C28.0797 7.90585 27.62 8.17255 27.4692 8.60847C26.969 10.0487 25.6136 11.0842 24.0026 11.0842C22.3934 11.0842 21.0362 10.0487 20.5379 8.61031C20.3852 8.17439 19.9236 7.90585 19.4804 8.03092C18.1784 8.39879 16.9444 8.92299 15.795 9.57963C15.4253 9.79115 15.269 10.2547 15.4309 10.6501C15.7012 11.3141 15.784 12.0719 15.6111 12.8628C15.326 14.1614 14.298 15.2484 13.0125 15.5924C12.1702 15.8186 11.3611 15.7469 10.6586 15.4673C10.254 15.3054 9.77951 15.4489 9.56434 15.8278C8.91516 16.9719 8.39655 18.2005 8.03242 19.4954C7.90737 19.935 8.17035 20.3912 8.59885 20.5475C10.0167 21.0589 11.0319 22.4052 11.0319 23.9999C11.0319 25.5946 10.0167 26.941 8.59701 27.4523C8.16851 27.6068 7.90737 28.063 8.03059 28.5026C8.35609 29.6559 8.80666 30.7576 9.36021 31.795C9.57905 32.2033 10.0866 32.3431 10.5078 32.15C11.602 31.6478 12.9776 31.6644 14.3771 32.5877C14.5923 32.7294 14.7909 32.928 14.9325 33.1414C15.9016 34.611 15.8741 36.0475 15.2966 37.164C15.0851 37.5741 15.2083 38.0855 15.6056 38.3191C16.8083 39.0254 18.1103 39.5827 19.4841 39.9689C19.9273 40.094 20.3834 39.8292 20.5323 39.3932C21.027 37.9475 22.3879 36.9046 24.0026 36.9046C25.6173 36.9046 26.9781 37.9475 27.4728 39.3932C27.6218 39.8273 28.0779 40.094 28.5211 39.9689C29.8765 39.5882 31.162 39.0382 32.3536 38.3448C32.7546 38.1112 32.8759 37.5944 32.6608 37.1842C32.076 36.0659 32.041 34.622 33.012 33.1469C33.1536 32.9335 33.3522 32.733 33.5674 32.5914C34.9871 31.6515 36.3756 31.6478 37.4754 32.1684C37.8965 32.367 38.4096 32.2291 38.6303 31.8189C39.1893 30.7815 39.6399 29.6779 39.9691 28.521C40.0941 28.0777 39.8275 27.6179 39.3916 27.4671Z" fill="#0092F6"/>
</g>
</svg>
