<svg width="422" height="354" viewBox="0 0 422 354" fill="none" xmlns="http://www.w3.org/2000/svg">
<path d="M141 159H290.5" stroke="#B3DEFC"/>
<path fill-rule="evenodd" clip-rule="evenodd" d="M282 159L272.752 163.447C272.496 163.571 272.183 163.471 272.055 163.224C271.927 162.977 272.031 162.676 272.287 162.553L279.675 159L272.287 155.447C272.031 155.324 271.927 155.023 272.055 154.777C272.183 154.53 272.496 154.429 272.752 154.553L282 159Z" fill="#B3DEFC"/>
<path fill-rule="evenodd" clip-rule="evenodd" d="M284.08 56.6565L279.3 65.7364C279.167 65.9886 278.857 66.0941 278.606 65.9722C278.356 65.8502 278.261 65.547 278.394 65.2949L282.212 58.0411L274.162 59.5868C273.882 59.6406 273.62 59.4613 273.576 59.1864C273.532 58.9115 273.723 58.6451 274.003 58.5914L284.08 56.6565Z" fill="#B3DEFC"/>
<path d="M141 159L224.923 98.9996L266.885 68.9993L277.375 61.4992L282.62 57.7492" stroke="#B3DEFC"/>
<path fill-rule="evenodd" clip-rule="evenodd" d="M279.3 252.671L284.08 261.75L274.003 259.816C273.723 259.762 273.532 259.495 273.575 259.221C273.619 258.946 273.882 258.766 274.162 258.82L281.036 260.14L277.084 257.315L266.594 249.814L224.632 219.814L140.709 159.814L141.291 159L225.214 219.001L267.175 249.001L277.666 256.501L281.694 259.381L278.394 253.112C278.261 252.86 278.356 252.557 278.606 252.435C278.857 252.313 279.167 252.418 279.3 252.671Z" fill="#B3DEFC"/>
<circle cx="211" cy="159" r="10" fill="#0092F6"/>
<path d="M205.503 158.279C206.005 157.944 206.507 158.195 206.675 158.446C207.066 158.949 207.914 160.021 208.182 160.289C208.45 160.557 208.74 160.456 208.852 160.372C211.001 158.139 215.517 153.456 215.718 153.255C215.969 153.004 216.388 152.836 216.807 153.255C217.142 153.59 216.974 153.925 216.807 154.176C214.685 156.8 210.091 162.449 209.354 163.387C208.601 164.346 207.847 164.057 207.512 163.554C206.731 162.214 205.218 159.719 205.084 159.451C204.889 159.061 205.035 158.591 205.503 158.279Z" fill="white"/>
<circle cx="221" cy="101" r="10" fill="#FF6C47"/>
<path fill-rule="evenodd" clip-rule="evenodd" d="M219.99 101L216.209 97.2194C215.93 96.9404 215.93 96.4882 216.209 96.2092C216.488 95.9303 216.94 95.9303 217.219 96.2092L221 99.9898L224.781 96.2092C225.06 95.9303 225.512 95.9303 225.791 96.2092C226.07 96.4882 226.07 96.9404 225.791 97.2194L222.01 101L225.791 104.781C226.07 105.06 226.07 105.512 225.791 105.791C225.512 106.07 225.06 106.07 224.781 105.791L221 102.01L217.219 105.791C216.94 106.07 216.488 106.07 216.209 105.791C215.93 105.512 215.93 105.06 216.209 104.781L219.99 101Z" fill="white"/>
<circle cx="221" cy="216" r="10" fill="#FF6C47"/>
<path fill-rule="evenodd" clip-rule="evenodd" d="M219.99 216L216.209 212.219C215.93 211.94 215.93 211.488 216.209 211.209C216.488 210.93 216.94 210.93 217.219 211.209L221 214.99L224.781 211.209C225.06 210.93 225.512 210.93 225.791 211.209C226.07 211.488 226.07 211.94 225.791 212.219L222.01 216L225.791 219.781C226.07 220.06 226.07 220.512 225.791 220.791C225.512 221.07 225.06 221.07 224.781 220.791L221 217.01L217.219 220.791C216.94 221.07 216.488 221.07 216.209 220.791C215.93 220.512 215.93 220.06 216.209 219.781L219.99 216Z" fill="white"/>
<path opacity="0.5" d="M71 173L141 201.5L71 230L1 201.5L71 173Z" fill="black"/>
<path opacity="0.5" d="M351 173L421 201.5L351 230L281 201.5L351 173Z" fill="black"/>
<path d="M71 116L141 144L71 172L1 144L71 116Z" fill="#92D2FF" stroke="#B3DEFC" stroke-linecap="round" stroke-linejoin="round"/>
<path d="M70.9998 202V171.814L141 144L140.812 174.186L70.9998 202Z" fill="#005894" stroke="#B3DEFC" stroke-linecap="round" stroke-linejoin="round"/>
<path d="M71 202V171.814L1 144L1.18766 174.186L71 202Z" fill="#57ABF8" stroke="#B3DEFC" stroke-linecap="round" stroke-linejoin="round"/>
<path d="M351 116L421 144L351 172L281 144L351 116Z" fill="#92D2FF" stroke="#B3DEFC" stroke-linecap="round" stroke-linejoin="round"/>
<path d="M351 202V171.814L421 144L420.812 174.186L351 202Z" fill="#005894" stroke="#B3DEFC" stroke-linecap="round" stroke-linejoin="round"/>
<path d="M351 202V171.814L281 144L281.188 174.186L351 202Z" fill="#57ABF8" stroke="#B3DEFC" stroke-linecap="round" stroke-linejoin="round"/>
<path opacity="0.5" d="M288 319L414 299L380.966 354L288 319Z" fill="black"/>
<path d="M288 262L414 242L380.966 297L288 262Z" fill="#92D2FF" stroke="#B3DEFC" stroke-linejoin="round"/>
<path d="M288 293V262L380.966 297V328L288 293Z" fill="#57ABF8" stroke="#B3DEFC" stroke-linejoin="round"/>
<path d="M380.966 328V297L414 242V273L380.966 328Z" fill="#005894" stroke="#B3DEFC" stroke-linejoin="round"/>
<ellipse opacity="0.5" cx="351" cy="77.8569" rx="65" ry="26" fill="black"/>
<path fill-rule="evenodd" clip-rule="evenodd" d="M416 27H286V54.8571C286 69.2165 315.101 80.8571 351 80.8571C386.899 80.8571 416 69.2165 416 54.8571V27Z" fill="url(#paint0_linear)"/>
<path d="M286 27V26.5H285.5V27H286ZM416 27H416.5V26.5H416V27ZM286 27.5H416V26.5H286V27.5ZM286.5 54.8571V27H285.5V54.8571H286.5ZM351 80.3571C333.098 80.3571 316.914 77.4538 305.224 72.7777C299.377 70.4391 294.68 67.6669 291.452 64.6142C288.225 61.5625 286.5 58.2652 286.5 54.8571H285.5C285.5 58.6288 287.413 62.1713 290.764 65.3408C294.115 68.5093 298.936 71.3397 304.852 73.7062C316.688 78.4402 333.003 81.3571 351 81.3571V80.3571ZM415.5 54.8571C415.5 58.2652 413.775 61.5625 410.548 64.6142C407.32 67.6669 402.623 70.4391 396.776 72.7777C385.086 77.4538 368.902 80.3571 351 80.3571V81.3571C368.997 81.3571 385.312 78.4402 397.148 73.7062C403.064 71.3397 407.885 68.5093 411.236 65.3408C414.587 62.1713 416.5 58.6288 416.5 54.8571H415.5ZM415.5 27V54.8571H416.5V27H415.5Z" fill="#B3DEFC"/>
<ellipse cx="351" cy="27" rx="65" ry="26" fill="#92D2FF" stroke="#B3DEFC"/>
<defs>
<linearGradient id="paint0_linear" x1="286" y1="46.5" x2="416" y2="46.5" gradientUnits="userSpaceOnUse">
<stop stop-color="#57ABF8"/>
<stop offset="1" stop-color="#005894"/>
</linearGradient>
</defs>
</svg>
