<svg width="40" height="40" viewBox="0 0 40 40" fill="none" xmlns="http://www.w3.org/2000/svg">
<g clip-path="url(#clip0)">
<path fill-rule="evenodd" clip-rule="evenodd" d="M6.6668 13.333C8.72353 13.333 10.5627 14.2643 11.7857 15.7283L28.1336 6.28955L30.3559 10.1385L13.3335 19.9667L13.3336 19.9998C13.3336 20.2955 13.3143 20.5868 13.277 20.8724L27.979 29.3608C29.194 27.7262 31.1399 26.6672 33.333 26.6672C37.015 26.6672 39.9998 29.652 39.9998 33.334C39.9998 37.016 37.015 40.0008 33.333 40.0008C29.7881 40.0008 26.8893 37.234 26.6785 33.742L11.2548 24.8368C10.0596 25.9709 8.44444 26.6666 6.6668 26.6666C2.98483 26.6666 0 23.6818 0 19.9998C0 16.3178 2.98483 13.333 6.6668 13.333ZM6.66797 22.2219C5.44065 22.2219 4.44571 21.227 4.44571 19.9996C4.44571 18.7723 5.44065 17.7774 6.66797 17.7774C7.8953 17.7774 8.89024 18.7723 8.89024 19.9996C8.89024 21.227 7.8953 22.2219 6.66797 22.2219ZM31.1124 33.3343C31.1124 34.5616 32.1073 35.5566 33.3347 35.5566C34.562 35.5566 35.5569 34.5616 35.5569 33.3343C35.5569 32.107 34.562 31.112 33.3347 31.112C32.1073 31.112 31.1124 32.107 31.1124 33.3343Z" fill="#0092F6"/>
<path fill-rule="evenodd" clip-rule="evenodd" d="M33.3331 13.3336C37.015 13.3336 39.9999 10.3488 39.9999 6.6668C39.9999 2.98483 37.015 0 33.3331 0C29.6511 0 26.6663 2.98483 26.6663 6.6668C26.6663 10.3488 29.6511 13.3336 33.3331 13.3336Z" fill="#3553EB"/>
</g>
<defs>
<clipPath id="clip0">
<rect width="40" height="40" fill="white"/>
</clipPath>
</defs>
</svg>
