<svg width="188" height="132" viewBox="0 0 188 132" fill="none" xmlns="http://www.w3.org/2000/svg">
<path d="M183.789 21.1354C181.628 13.1028 175.295 6.77078 167.264 4.60785C152.591 0.593262 93.9 0.593262 93.9 0.593262C93.9 0.593262 35.2113 0.593262 20.5388 4.45564C12.6619 6.61629 6.17422 13.1039 4.01358 21.1354C0.152344 35.8067 0.152344 66.2331 0.152344 66.2331C0.152344 66.2331 0.152344 96.8129 4.01358 111.331C6.17651 119.362 12.5074 125.694 20.54 127.857C35.3658 131.873 93.9023 131.873 93.9023 131.873C93.9023 131.873 152.591 131.873 167.264 128.011C175.296 125.849 181.628 119.517 183.791 111.485C187.651 96.8129 187.651 66.3876 187.651 66.3876C187.651 66.3876 187.806 35.8067 183.789 21.1354V21.1354ZM75.2141 94.3421V38.1242L124.019 66.2331L75.2141 94.3421Z" fill="#BDC3CA"/>
</svg>
