<svg width="200" height="165" viewBox="0 0 200 165" fill="none" xmlns="http://www.w3.org/2000/svg">
<path d="M178.548 2.30324L9.59347 72.7008C-15.0457 83.2606 13.1133 90.2999 34.2326 97.3397C51.128 102.971 64.7382 94.9931 69.4314 90.2999C85.8574 79.7403 122.933 55.8052 139.829 44.5416C156.724 33.278 146.869 46.8881 139.829 55.1012L130.633 64.2968C120.976 73.9541 107.754 87.1755 97.5904 97.3397C87.031 107.899 83.5114 114.939 94.0707 121.979C106.977 130.192 135.746 151.617 153.908 160.697C175.028 171.257 177.374 156.004 178.548 146.618C184.414 111.419 196.851 36.094 199.667 16.3827C202.483 -3.32856 186.761 -1.21664 178.548 2.30324Z" fill="#BDC3CA"/>
</svg>
