<svg width="200" height="164" viewBox="0 0 200 164" fill="none" xmlns="http://www.w3.org/2000/svg">
<path d="M200 19.9875C192.562 23.25 184.637 25.4125 176.375 26.4625C184.875 21.3875 191.363 13.4125 194.413 3.8C186.488 8.525 177.737 11.8625 168.412 13.725C160.887 5.7125 150.162 0.75 138.462 0.75C115.762 0.75 97.4875 19.175 97.4875 41.7625C97.4875 45.0125 97.7625 48.1375 98.4375 51.1125C64.35 49.45 34.1875 33.1125 13.925 8.225C10.3875 14.3625 8.3125 21.3875 8.3125 28.95C8.3125 43.15 15.625 55.7375 26.525 63.025C19.9375 62.9 13.475 60.9875 8 57.975C8 58.1 8 58.2625 8 58.425C8 78.35 22.2125 94.9 40.85 98.7125C37.5125 99.625 33.875 100.062 30.1 100.062C27.475 100.062 24.825 99.9125 22.3375 99.3625C27.65 115.6 42.725 127.537 60.65 127.925C46.7 138.837 28.9875 145.412 9.8125 145.412C6.45 145.412 3.225 145.262 0 144.85C18.1625 156.562 39.6875 163.25 62.9 163.25C138.35 163.25 179.6 100.75 179.6 46.575C179.6 44.7625 179.537 43.0125 179.45 41.275C187.587 35.5 194.425 28.2875 200 19.9875Z" fill="#BDC3CA"/>
</svg>
