<svg width="80" height="46" viewBox="0 0 80 46" fill="none" xmlns="http://www.w3.org/2000/svg">
<path d="M45 23.2001C45 35.7001 34.9 45.8001 22.5 45.8001C10.1 45.8001 0 35.8001 0 23.2001C0 10.6001 10.1 0.600098 22.5 0.600098C34.9 0.600098 45 10.7001 45 23.2001Z" fill="#BDC3CA"/>
<path d="M69.7 23.1999C69.7 34.9999 64.7 44.4999 58.5 44.4999C52.3 44.4999 47.3 34.9999 47.3 23.1999C47.3 11.3999 52.3 1.8999 58.5 1.8999C64.6 1.8999 69.7 11.4999 69.7 23.1999Z" fill="#BDC3CA"/>
<path d="M79.7 23.2001C79.7 33.7001 77.9 42.3001 75.7 42.3001C73.5 42.3001 71.7 33.7001 71.7 23.2001C71.7 12.7001 73.5 4.1001 75.7 4.1001C78 4.1001 79.7 12.7001 79.7 23.2001Z" fill="#BDC3CA"/>
</svg>
