<svg width="40" height="40" viewBox="0 0 40 40" fill="none" xmlns="http://www.w3.org/2000/svg">
<g style="mix-blend-mode:multiply">
<path d="M13.5828 32.7241L10.3068 22.5839L31.9911 8.85568L32.7711 8.38768L34.9552 7.45166L15.6108 24.9239L21.2269 29.136C19.8229 30.488 16.8901 33.3169 16.3909 33.8161C15.8917 34.3153 15.3508 34.4401 15.1428 34.4401C14.394 34.4401 13.7908 33.2961 13.5828 32.7241Z" fill="#3553EB"/>
</g>
<g style="mix-blend-mode:multiply">
<path fill-rule="evenodd" clip-rule="evenodd" d="M15.6108 24.924L15.6108 24.924L14.7423 34.3327C14.8697 34.4007 15.0038 34.4401 15.1428 34.4401C15.3508 34.4401 15.8916 34.3153 16.3908 33.8161C16.89 33.3169 19.8229 30.488 21.2269 29.136L15.6108 24.924Z" fill="#0092F6"/>
</g>
<path d="M1.41462 16.4998L36.6712 3.39562C37.2432 3.13562 38.5744 2.74041 39.3232 3.23962C40.072 3.73882 40.0512 4.79964 39.9472 5.26765C38.0232 14.1078 34.0815 32.1937 33.7071 33.8161C33.2391 35.8442 32.6151 36.1562 31.6791 36.1562C30.9303 36.1562 29.9111 35.5321 29.4951 35.2201L15.6108 24.924C21.1749 19.8799 32.3343 9.76052 32.4591 9.63572C32.6151 9.47972 33.0831 9.16771 32.7711 8.85571C32.5215 8.6061 32.0431 8.85571 31.8351 9.01171L10.3068 22.5839L2.50663 19.9319C1.72662 19.6199 0.135395 18.8087 0.0105927 18.0599C-0.114209 17.311 0.894607 16.7078 1.41462 16.4998Z" fill="#0092F6"/>
</svg>
